<?xml version="1.0" encoding="utf-8"?>
<!-- Generator: Adobe Illustrator 25.4.1, SVG Export Plug-In . SVG Version: 6.00 Build 0)  -->
<svg version="1.1" id="Layer_1" xmlns="http://www.w3.org/2000/svg" xmlns:xlink="http://www.w3.org/1999/xlink" x="0px" y="0px"
	 viewBox="0 0 128 128" style="enable-background:new 0 0 128 128;" xml:space="preserve">
<style type="text/css">
	.st0{fill:#FFFFFF;}
	.st1{fill:#CD8C5E;}
</style>
<rect x="0" class="st0" width="128" height="128"/>
<g>
	<g>
		<path class="st1" d="M8,34.8c-0.6,0-1.2-0.2-1.8-0.8c-1-1-1-2.5,0-3.5L25.7,11c1-1,2.5-1,3.5,0s1,2.5,0,3.5L9.7,34
			C9.1,34.6,8.5,34.8,8,34.8z"/>
		<path class="st1" d="M27.5,54.3c-0.6,0-1.2-0.2-1.8-0.8L6.2,34c-1-1-1-2.5,0-3.5s2.5-1,3.5,0L29.2,50c1,1,1,2.5,0,3.5
			C28.7,54.1,28.1,54.3,27.5,54.3z"/>
		<path class="st1" d="M115.4,64.1c-1.4,0-2.3-1.2-2.5-2.3l0,0c0-14.8-12.1-26.7-26.9-26.9H7.8c-1.4,0-2.3-1.2-2.5-2.3l0,0
			c0.2-1.4,1.4-2.5,2.5-2.5l0,0h78.1c17.6,0,31.6,14.3,31.8,31.8C117.7,62.9,116.5,64.1,115.4,64.1L115.4,64.1z"/>
		<path class="st1" d="M100.7,117.8c-0.6,0-1.2-0.2-1.8-0.8c-1-1-1-2.5,0-3.5l19.5-19.5c1-1,2.5-1,3.5,0c1,1,1,2.5,0,3.5L102.5,117
			C101.9,117.6,101.3,117.8,100.7,117.8z"/>
		<path class="st1" d="M120.2,98.2c-0.6,0-1.2-0.2-1.8-0.8L99,77.9c-1-1-1-2.5,0-3.5c1-1,2.5-1,3.5,0L122,93.9c1,1,1,2.5,0,3.5
			C121.4,98,120.8,98.2,120.2,98.2z"/>
		<path class="st1" d="M120.2,98.2H42.1c-17.6,0-31.6-14.3-31.8-31.8c0-1.4,1.2-2.3,2.3-2.5l0,0c1.4,0,2.3,1.2,2.5,2.3l0,0
			c0,14.8,12.1,26.7,26.9,26.9h78.1c1.4,0,2.3,1.2,2.5,2.3l0,0C122.6,97.1,121.4,98.2,120.2,98.2L120.2,98.2z"/>
	</g>
</g>
</svg>
