<?xml version="1.0" encoding="utf-8"?>
<!-- Generator: Adobe Illustrator 25.4.1, SVG Export Plug-In . SVG Version: 6.00 Build 0)  -->
<svg version="1.1" id="Layer_1" xmlns="http://www.w3.org/2000/svg" xmlns:xlink="http://www.w3.org/1999/xlink" x="0px" y="0px"
	 viewBox="0 0 128 128" style="enable-background:new 0 0 128 128;" xml:space="preserve">
<style type="text/css">
	.st0{fill:#FFFFFF;}
	.st1{fill:#CD8C5E;}
</style>
<rect x="0" class="st0" width="128" height="128"/>
<g>
	<g>
		<path class="st1" d="M95.4,51.4c-10.4,0-18.8-8.4-18.9-18.9c0-10.4,8.4-18.8,18.9-18.8c10.4,0,18.8,8.4,18.8,18.9
			C114.1,43.1,105.8,51.4,95.4,51.4z M95.4,18c-8,0-14.6,6.5-14.7,14.7c0,8,6.5,14.6,14.7,14.7c8,0,14.6-6.5,14.7-14.7
			C110,24.5,103.4,18,95.4,18z"/>
		<path class="st1" d="M32.6,80.7c-10.5,0-18.9-8.4-18.9-18.8s8.4-18.8,18.9-18.9c10.4,0,18.8,8.4,18.9,18.9
			C51.4,72.4,43,80.7,32.6,80.7z M32.6,47.3c-8,0-14.6,6.5-14.7,14.7c0,8,6.5,14.6,14.7,14.7c8,0,14.6-6.5,14.7-14.7
			C47.2,53.8,40.6,47.3,32.6,47.3z"/>
		<path class="st1" d="M95.4,114.2c-10.4,0-18.8-8.4-18.9-18.9c0-10.4,8.4-18.8,18.9-18.9c10.4,0,18.8,8.4,18.9,18.9
			C114.1,105.9,105.8,114.2,95.4,114.2z M95.4,80.7c-8,0-14.6,6.5-14.7,14.7c0,8,6.5,14.6,14.7,14.7c8,0,14.6-6.5,14.7-14.7
			C110,87.3,103.4,80.7,95.4,80.7z"/>
		<path class="st1" d="M78.5,89.1c-0.3,0-0.7-0.2-1-0.3L48.2,72c-1-0.5-1.3-1.8-0.8-2.8c0.5-1,1.8-1.3,2.8-0.8l0,0l29.3,16.7
			c1,0.5,1.3,1.8,0.8,2.8C80,88.8,79.3,89.1,78.5,89.1z"/>
		<path class="st1" d="M49.3,55.6c-0.7,0-1.5-0.3-1.8-1c-0.5-1-0.2-2.3,0.8-2.8L77.6,35c1-0.5,2.3-0.2,2.8,0.8l0,0
			c0.5,1,0.2,2.3-0.8,2.8L50.4,55.5C50,55.5,49.7,55.6,49.3,55.6z"/>
	</g>
</g>
</svg>
