<?xml version="1.0" encoding="utf-8"?>
<!-- Generator: Adobe Illustrator 25.4.1, SVG Export Plug-In . SVG Version: 6.00 Build 0)  -->
<svg version="1.1" id="Layer_1" xmlns="http://www.w3.org/2000/svg" xmlns:xlink="http://www.w3.org/1999/xlink" x="0px" y="0px"
	 viewBox="0 0 128 128" style="enable-background:new 0 0 128 128;" xml:space="preserve">
<style type="text/css">
	.st0{fill:#FFFFFF;}
	.st1{fill:#CD8C5E;}
</style>
<rect x="0" class="st0" width="128" height="128"/>
<g>
	<g>
		<path class="st1" d="M38.6,84.9c-8,0-15.4-2.6-19.6-6.9c-2.1-2.1-3.4-4.8-3.4-7.7c0-1.1,1-2.1,2.1-2.1s2.1,1,2.1,2.1
			c0,1.8,0.8,3.5,2.3,4.8c3.4,3.5,9.8,5.6,16.7,5.6s13.3-2.1,16.7-5.6c1.3-1.3,2.1-3.1,2.3-4.8c0-1.1,1-2.1,2.1-2.1
			c1.1,0,2.1,1,2.1,2.1c0,2.9-1.3,5.8-3.4,7.7C54.2,82.3,46.8,84.9,38.6,84.9z"/>
		<path class="st1" d="M56.8,91.3c-0.5,0-1.1-0.2-1.4-0.6c-0.8-0.8-0.8-2.1,0-2.9l0,0c1.3-1.3,2.1-3.1,2.3-4.8c0-1.1,1-2.1,2.1-2.1
			c1.1,0,2.1,1,2.1,2.1c0,2.9-1.3,5.8-3.4,7.7C57.9,91,57.4,91.3,56.8,91.3z"/>
		<path class="st1" d="M20.6,91.3c-0.6,0-1.1-0.2-1.4-0.6c-2.3-2.1-3.5-4.8-3.5-7.9c0-1.1,1-2.1,2.1-2.1c1.1,0,2.1,1,2.1,2.1
			c0,1.8,0.8,3.5,2.3,4.8c0.8,0.8,0.8,2.1,0,2.9l0,0C21.5,91,21.1,91.3,20.6,91.3z"/>
		<path class="st1" d="M38.6,59.8c-8.2,0-15.4-2.6-19.6-6.9c-2.1-2.1-3.4-4.8-3.4-7.7c0-1.1,1-2.1,2.1-2.1c1.1,0,2.1,1,2.1,2.1
			c0,1.8,0.8,3.5,2.3,4.8c3.4,3.5,9.8,5.6,16.7,5.6s13.3-2.1,16.7-5.6c1.3-1.3,2.1-3.1,2.3-4.8c0-1.1,1-2.1,2.1-2.1
			c1.1,0,2.1,1,2.1,2.1c0,2.9-1.3,5.8-3.4,7.7C54.2,57.2,46.8,59.8,38.6,59.8z"/>
		<path class="st1" d="M38.6,47.3c-12.9,0-23-6.4-23-14.6s10.1-14.8,23-14.8s23,6.4,23,14.6S51.6,47.3,38.6,47.3z M38.6,22
			c-10.1,0-18.8,4.8-18.8,10.5s8.7,10.5,18.8,10.5s18.8-4.8,18.8-10.5S48.9,22,38.6,22L38.6,22z"/>
		<path class="st1" d="M38.6,72.4c-8.2,0-15.4-2.6-19.6-6.9c-2.1-2.1-3.4-4.8-3.4-7.7c0-1.1,1-2.1,2.1-2.1s2.1,1,2.1,2.1
			c0,1.8,0.8,3.5,2.3,4.8c3.4,3.5,9.8,5.6,16.7,5.6s13.3-2.1,16.7-5.6c1.3-1.3,2.1-3.1,2.3-4.8c0-1.1,1-2.1,2.1-2.1
			c1.1,0,2.1,1,2.1,2.1c0,2.9-1.3,5.8-3.4,7.7C54.2,69.8,46.8,72.4,38.6,72.4z"/>
		<path class="st1" d="M38.6,110.2c-12.9,0-23-6.4-23-14.6c0-1.3,1-2.1,2.1-2.1c1.1,0,2.1,1,2.1,2.1c0,5.6,8.7,10.5,18.8,10.5
			s18.8-4.8,18.8-10.5c0-1.1,1-2.1,2.1-2.1s2.1,1,2.1,2.1C61.7,103.7,51.6,110.2,38.6,110.2z"/>
		<path class="st1" d="M38.6,97.6c-8,0-15.4-2.6-19.6-6.9c-0.8-0.8-0.8-2.1,0-2.9c0.8-0.8,2.1-0.8,2.9,0c3.4,3.5,9.8,5.6,16.7,5.6
			s13.3-2.1,16.7-5.6c0.8-0.8,2.1-0.8,2.9,0l0,0c0.8,0.8,0.8,2.1,0,2.9C54.2,95,46.8,97.6,38.6,97.6z"/>
		<path class="st1" d="M59.7,97.6c-1.1,0-2.1-1-2.1-2.1v-63c0-1.1,1-2.1,2.1-2.1c1.1,0,2.1,1,2.1,2.1v62.9
			C61.7,96.6,60.8,97.6,59.7,97.6L59.7,97.6z"/>
		<path class="st1" d="M17.7,97.6c-1.1,0-2.1-1-2.1-2.1v-63c0-1.1,1-2.1,2.1-2.1c1.1,0,2.1,1,2.1,2.1v62.9
			C19.8,96.6,18.8,97.6,17.7,97.6L17.7,97.6z"/>
		<path class="st1" d="M89.1,110.2c-8,0-15.4-2.6-19.6-6.9c-2.1-2.1-3.4-4.8-3.4-7.7c0-1.1,1-2.1,2.1-2.1s2.1,1,2.1,2.1
			c0,1.8,0.8,3.5,2.3,4.8c3.4,3.5,9.8,5.6,16.7,5.6c6.9,0,13.3-2.1,16.7-5.6c1.3-1.3,2.1-3.1,2.3-4.8c0-1.1,1-2.1,2.1-2.1
			s2.1,1,2.1,2.1c0,2.9-1.3,5.8-3.4,7.7C104.5,107.6,97.1,110.2,89.1,110.2z"/>
		<path class="st1" d="M89.1,84.9c-8,0-15.4-2.6-19.6-6.9c-2.1-2.1-3.4-4.8-3.4-7.7c0-1.1,1-2.1,2.1-2.1s2.1,1,2.1,2.1
			c0,1.8,0.8,3.5,2.3,4.8c3.4,3.5,9.8,5.6,16.7,5.6c6.9,0,13.3-2.1,16.7-5.6c1.3-1.3,2.1-3.1,2.3-4.8c0-1.1,1-2.1,2.1-2.1
			s2.1,1,2.1,2.1c0,2.9-1.3,5.8-3.4,7.7C104.5,82.3,97.1,84.9,89.1,84.9z"/>
		<path class="st1" d="M89.1,72.4c-12.9,0-23-6.4-23-14.6s10.1-14.6,23-14.6s23,6.4,23,14.6S102,72.4,89.1,72.4z M89.1,47.3
			c-10.3,0-18.8,4.8-18.8,10.5S79,68.2,89.1,68.2s18.8-4.8,18.8-10.5S99.2,47.3,89.1,47.3L89.1,47.3z"/>
		<path class="st1" d="M89.1,97.6c-8,0-15.4-2.6-19.6-6.9c-2.1-2.1-3.4-4.8-3.4-7.7c0-1.1,1-2.1,2.1-2.1s2.1,1,2.1,2.1
			c0,1.8,0.8,3.5,2.3,4.8c3.4,3.5,9.8,5.6,16.7,5.6c6.9,0,13.3-2.1,16.7-5.6c1.3-1.3,2.1-3.1,2.3-4.8c0-1.1,1-2.1,2.1-2.1
			s2.1,1,2.1,2.1c0,2.9-1.3,5.8-3.4,7.7C104.5,95,97.1,97.6,89.1,97.6z"/>
		<path class="st1" d="M110,97.6c-1.1,0-2.1-1-2.1-2.1V57.7c0-1.1,1-2.1,2.1-2.1s2.1,1,2.1,2.1v37.8C112.1,96.6,111.1,97.6,110,97.6
			L110,97.6z"/>
		<path class="st1" d="M68,97.6c-1.1,0-2.1-1-2.1-2.1V57.7c0-1.1,1-2.1,2.1-2.1c1.1,0,2.1,1,2.1,2.1v37.8
			C70.1,96.6,69.1,97.6,68,97.6L68,97.6z"/>
	</g>
</g>
</svg>
