<?xml version="1.0" encoding="utf-8"?>
<!-- Generator: Adobe Illustrator 25.4.1, SVG Export Plug-In . SVG Version: 6.00 Build 0)  -->
<svg version="1.1" id="Layer_1" xmlns="http://www.w3.org/2000/svg" xmlns:xlink="http://www.w3.org/1999/xlink" x="0px" y="0px"
	 viewBox="0 0 128 128" style="enable-background:new 0 0 128 128;" xml:space="preserve">
<style type="text/css">
	.st0{fill:#FFFFFF;}
	.st1{fill:#CD8C5E;stroke:#CD8C5E;}
	.st2{fill:#CD8C5E;}
</style>
<rect x="0" class="st0" width="128" height="128"/>
<g>
	<g>
		<path class="st1" d="M80.2,56.1c4.1,0,8.2,1,11.8,3.1v-3.2c-3.7-1.9-7.7-2.7-11.8-2.7c-15,0-27.3,12.3-27.3,27.3
			c0,1.4,0.2,2.7,0.3,4.1h2.9c-0.2-1.4-0.3-2.7-0.3-4.1C55.8,67,66.7,56.1,80.2,56.1z"/>
		<path class="st1" d="M97.6,97.7c-4.6,4.6-10.9,7.2-17.4,7.2c-10.4,0-19.8-6.6-23.2-16.7h-3.1c3.4,11.6,14.1,19.4,26.2,19.4
			c6.8,0,13.3-2.6,18.2-7l-0.9-0.9C96.9,99.2,96.9,98.3,97.6,97.7z"/>
		<path class="st1" d="M104.7,80.4c0,6.5-2.6,12.6-7.2,17.2c0.5-0.5,1.5-0.5,2,0l1,1c4.6-4.9,7-11.4,7-18.2c0-9-4.4-17.4-11.8-22.5
			v3.6C101.5,66.3,104.7,73.1,104.7,80.4z"/>
		<path class="st1" d="M121.6,119.6l-21.1-21c-0.7,0.7-1.4,1.4-2,2l21,21c0.3,0.3,0.7,0.3,1,0.3s0.7-0.2,1-0.3
			C122.1,121.2,122.1,120.3,121.6,119.6z"/>
		<path class="st2" d="M97.6,97.7L97.6,97.7L97.6,97.7L97.6,97.7z"/>
		<path class="st2" d="M100.5,98.7l-1-1c-0.5-0.5-1.5-0.5-2,0l0,0c-0.5,0.5-0.5,1.5,0,2l1,1C99.3,100,100,99.4,100.5,98.7z"/>
		<path class="st2" d="M11.7,84.5c-1,0-1.9-0.9-1.9-1.9v-43H7.9c-1,0-1.9-0.9-1.9-1.9v44.8c0,3.1,2.6,5.6,5.6,5.6h42.4
			c-0.3-1.2-0.7-2.6-0.9-3.7H11.7z"/>
		<path class="st2" d="M7.9,36h1.9V11.6c0-1,0.9-1.9,1.9-1.9h21c0.5,0,0.9,0.2,1.2,0.5l10.7,9.4c1,0.9,2.4,1.4,3.7,1.4h41.9
			c1,0,1.9,0.9,1.9,1.9V36H94c1,0,1.9,0.9,1.9,1.9v-15c0-3.1-2.6-5.6-5.6-5.6H48.3c-0.5,0-0.9-0.2-1.2-0.5L36.5,7.3
			C35.4,6.5,34,6,32.6,6h-21C8.6,6,6,8.5,6,11.6v26.2C6,36.8,6.9,36,7.9,36z"/>
		<path class="st2" d="M94,39.7h-1.9v16.2c1.4,0.7,2.6,1.4,3.7,2.2V37.8C95.9,38.9,95,39.7,94,39.7z"/>
		<path class="st1" d="M56.1,84.5h-2.9c0.2,1.2,0.5,2.6,0.9,3.7h3.1C56.7,87.1,56.3,85.7,56.1,84.5z"/>
		<path class="st1" d="M92.1,59.1c1.4,0.7,2.6,1.5,3.7,2.6v-3.6c-1.2-0.9-2.4-1.5-3.7-2.2V59.1z"/>
		<rect x="9.8" y="36" class="st2" width="82.3" height="3.7"/>
		<path class="st2" d="M7.9,39.7h1.9V36H7.9c-1,0-1.9,0.7-1.9,1.9C6,38.9,6.9,39.7,7.9,39.7z"/>
		<path class="st2" d="M94,36h-1.9v3.7H94c1,0,1.9-0.9,1.9-1.9C95.9,36.6,95,36,94,36z"/>
	</g>
</g>
</svg>
