<?xml version="1.0" encoding="utf-8"?>
<!-- Generator: Adobe Illustrator 25.4.1, SVG Export Plug-In . SVG Version: 6.00 Build 0)  -->
<svg version="1.1" id="Layer_1" xmlns="http://www.w3.org/2000/svg" xmlns:xlink="http://www.w3.org/1999/xlink" x="0px" y="0px"
	 viewBox="0 0 128 128" style="enable-background:new 0 0 128 128;" xml:space="preserve">
<style type="text/css">
	.st0{fill:#FFFFFF;}
	.st1{fill:#CD8C5E;}
</style>
<rect x="0" class="st0" width="128" height="128"/>
<g>
	<g>
		<path class="st1" d="M31,5.1c-0.4,0-0.8,0.2-1.2,0.4c-0.8,0.4-1.2,1.2-1.2,2v29.1c0,1,0.6,1.8,1.4,2.2l42.4,20.4
			c0.4,0.2,0.6,0.2,1,0.2c0.4,0,1-0.2,1.4-0.4L96,44.8c0.6-0.4,1-1.2,1-2s-0.6-1.6-1.2-2L32.2,5.5C31.8,5.1,31.4,5.1,31,5.1z
			 M31,45.2c-0.4,0-0.8,0-1.2,0.4c-0.8,0.4-1.2,1.2-1.2,2v73.1c0,1.4,1,2.4,2.4,2.4c0.4,0,0.8-0.2,1.2-0.2l66-37.7
			c0.8-0.4,1.2-1.2,1.2-2V52.3c0-1-0.6-1.8-1.6-2.2s-2-0.2-2.6,0.6l-61.9,65.2L52,60.1c0.4-1,0-2.2-1-2.8L32.2,45.6
			C31.8,45.4,31.4,45.2,31,45.2z"/>
	</g>
</g>
</svg>
