<?xml version="1.0" encoding="utf-8"?>
<!-- Generator: Adobe Illustrator 25.4.1, SVG Export Plug-In . SVG Version: 6.00 Build 0)  -->
<svg version="1.1" id="Layer_1" xmlns="http://www.w3.org/2000/svg" xmlns:xlink="http://www.w3.org/1999/xlink" x="0px" y="0px"
	 viewBox="0 0 128 128" style="enable-background:new 0 0 128 128;" xml:space="preserve">
<style type="text/css">
	.st0{fill:#FFFFFF;}
	.st1{fill:#CD8C5E;}
</style>
<rect x="0" class="st0" width="128" height="128"/>
<g>
	<g>
		<path class="st1" d="M21.3,16.2c-8.5,0-15.5,7-15.5,15.5v51.8c0,7.6,5.4,14,13,15.3v-5.2c-4.7-1.2-7.8-5.2-7.8-10.1V31.7
			c0-5.6,4.7-10.3,10.3-10.3l0,0h85.4c5.6,0,10.3,4.7,10.3,10.3l0,0v51.8c0,4.7-3.1,8.9-7.8,10.1v5.2c7.4-1.2,13-7.8,13-15.3V31.7
			c0-8.5-7-15.5-15.5-15.5H21.3z M95,36.9c-3.5,0-6.4,2.9-6.4,6.4l0,0l0,0v62.1c0,3.5,2.9,6.4,6.4,6.4c3.5,0,6.4-2.9,6.4-6.4l0,0
			V43.3C101.4,39.8,98.5,36.9,95,36.9L95,36.9L95,36.9z M53.7,52.5c-3.5,0-6.4,2.9-6.4,6.4l0,0l0,0v46.6c0,3.5,2.9,6.4,6.4,6.4l0,0
			c3.5,0,6.4-2.9,6.4-6.4V58.9C60.1,55.4,57.2,52.5,53.7,52.5L53.7,52.5L53.7,52.5L53.7,52.5z M74.3,62.7c-3.5,0-6.4,2.9-6.4,6.4
			l0,0l0,0v36.3c0,3.5,2.9,6.4,6.4,6.4l0,0c3.5,0,6.4-2.9,6.4-6.4V69.1C80.9,65.6,78,62.7,74.3,62.7L74.3,62.7L74.3,62.7z M33,75.7
			c-3.5,0-6.4,2.9-6.4,6.4l0,0l0,0v23.3c0,3.5,2.9,6.4,6.4,6.4l0,0c3.5,0,6.4-2.9,6.4-6.4V82.1C39.4,78.6,36.5,75.7,33,75.7L33,75.7
			L33,75.7z"/>
	</g>
</g>
</svg>
