<?xml version="1.0" encoding="utf-8"?>
<!-- Generator: Adobe Illustrator 25.4.1, SVG Export Plug-In . SVG Version: 6.00 Build 0)  -->
<svg version="1.1" id="Layer_1" xmlns="http://www.w3.org/2000/svg" xmlns:xlink="http://www.w3.org/1999/xlink" x="0px" y="0px"
	 viewBox="0 0 128 128" style="enable-background:new 0 0 128 128;" xml:space="preserve">
<style type="text/css">
	.st0{fill:#FFFFFF;}
	.st1{fill:#CD8C5E;}
</style>
<rect x="0" class="st0" width="128" height="128"/>
<g>
	<g>
		<path class="st1" d="M5.4,33.5v61h63.4l59.2-61H5.4z"/>
		<path class="st0" d="M82.9,43.2H68.8v29.6L56.9,43.2H46l-9.7,24.6c-1.2-5.6-6.9-7.5-10.7-8.5c-9.3-2.2-10.1-3.4-10.1-5.2
			c0-4.6,12.5-2.4,15.5-1.2c1-2.4,2.8-7.3,2.8-7.3s-3.4-2.4-14.1-2.4S6.1,49.9,6.1,53.9c0,5,3.2,9.3,8.1,10.7
			c6.3,1.8,10.9,2.2,10.9,5.2s-10.7,3.8-16.5,0l-2.4,8.1c0,0,3.4,2.8,13.7,2.8c4.6,0.2,9.1-1.2,12.7-3.8l-1.2,3.8h10.9l1.8-5.6
			c4.8,2,10.3,2,14.9,0l1.8,5.6h17.1v-9.3h4.6c7.7,0,14.1-6.3,14.1-14.1l0,0C97.1,49.5,90.6,43.2,82.9,43.2L82.9,43.2z M51.7,68.4
			c-1.6,0.2-3.2-0.4-4.6-1.2l4.6-13.5l4.6,13.5C54.9,68.2,53.3,68.6,51.7,68.4L51.7,68.4z M82.9,62h-4.6v-9.3h4.6
			c2.6,0,4.6,2,4.6,4.6C87.6,59.8,85.6,62,82.9,62L82.9,62z"/>
	</g>
</g>
</svg>
