<?xml version="1.0" encoding="utf-8"?>
<!-- Generator: Adobe Illustrator 25.4.1, SVG Export Plug-In . SVG Version: 6.00 Build 0)  -->
<svg version="1.1" id="Layer_1" xmlns="http://www.w3.org/2000/svg" xmlns:xlink="http://www.w3.org/1999/xlink" x="0px" y="0px"
	 viewBox="0 0 128 128" style="enable-background:new 0 0 128 128;" xml:space="preserve">
<style type="text/css">
	.st0{fill:#FFFFFF;}
	.st1{fill:#CD8C5E;}
</style>
<rect x="0" class="st0" width="128" height="128"/>
<g>
	<g>
		<path class="st1" d="M72.8,122.9c-1.3,0-2.7-0.4-3.8-1.3L9.5,77.7c-1.7-1.3-2.7-3.2-2.7-5.3s1-4,2.7-5.3c1-0.8,2.3-0.6,3.1,0.4
			l0,0c0.8,1,0.6,2.3-0.4,3.1c-0.6,0.4-1,1.1-1,1.7c0,0.8,0.4,1.3,1,1.7l59.3,43.9c0.8,0.6,1.7,0.6,2.7,0l42-30.9
			c0.6-0.4,1-1.1,1-1.7c0-0.8-0.4-1.3-1-1.7c-1-0.8-1.1-2.1-0.4-3.1l0,0c0.8-1,2.1-1.1,3.1-0.4l0,0c1.5,1.5,2.5,3.4,2.5,5.5
			s-1,4-2.7,5.3l-42,30.7C75.4,122.3,74.1,122.9,72.8,122.9z"/>
		<path class="st1" d="M72.8,108c-1.3,0-2.7-0.4-3.8-1.3L9.7,62.8c-1.9-1.3-2.9-3.2-2.9-5.3c0-2.1,1-4,2.7-5.3
			c1-0.8,2.3-0.6,3.1,0.4c0.8,1,0.6,2.3-0.4,3.1l0,0c-0.6,0.4-1,1.1-1,1.7c0,0.8,0.4,1.3,1,1.7l59.3,43.9c0.8,0.6,1.7,0.6,2.5,0
			l42-30.9c0.6-0.4,1-1.1,1-1.7c0-0.8-0.4-1.3-1-1.7c-1-0.8-1.1-2.1-0.4-3.1c0.8-1,2.1-1.1,3.1-0.4l0,0c1.7,1.1,2.7,3.2,2.7,5.3
			c0,2.1-1,4-2.7,5.3l-42,30.9C75.4,107.5,74.1,108,72.8,108z"/>
		<path class="st1" d="M72.8,93c-1.3,0-2.7-0.4-3.8-1.3L9.7,47.8c-1.9-1.1-2.9-3.1-2.9-5.1s1-4,2.7-5.3l42-30.9
			c2.3-1.7,5.5-1.7,7.8,0l59.3,43.9c1.7,1.1,2.7,3.2,2.7,5.3c0,2.1-1,4-2.7,5.3l-42,30.9C75.4,92.6,74.1,93,72.8,93z M55.2,9.6
			c-0.4,0-1,0.2-1.3,0.4l-42,30.9c-0.6,0.4-1,1.1-1,1.7c0,0.8,0.4,1.3,1,1.7l59.3,43.9c0.8,0.6,1.7,0.6,2.5,0l42-30.9
			c0.6-0.4,1-1.1,1-1.7c0-0.8-0.4-1.3-1-1.7l0,0L56.4,10C56.2,9.8,55.8,9.6,55.2,9.6z"/>
	</g>
</g>
</svg>
