<?xml version="1.0" encoding="utf-8"?>
<!-- Generator: Adobe Illustrator 25.4.1, SVG Export Plug-In . SVG Version: 6.00 Build 0)  -->
<svg version="1.1" id="Layer_1" xmlns="http://www.w3.org/2000/svg" xmlns:xlink="http://www.w3.org/1999/xlink" x="0px" y="0px"
	 viewBox="0 0 128 128" style="enable-background:new 0 0 128 128;" xml:space="preserve">
<style type="text/css">
	.st0{fill:#FFFFFF;}
	.st1{fill:#CD8C5E;}
	.st2{fill:none;}
</style>
<rect x="0" class="st0" width="128" height="128"/>
<g>
	<path class="st1" d="M59.2,33h-18v62.5h17.5c19.8,0,32.1-11.8,32.1-32.1C90.8,43.9,78.6,33,59.2,33z M59.1,87.9h-9.3V40.4h9.3
		c14.6,0,22.2,8,22.2,23.7C81.3,79.6,74.4,87.9,59.1,87.9z"/>
	<g>
		<path class="st2" d="M31.7,5.1c-14.6,0-26.6,12-26.6,26.6C5.1,17.1,17.1,5.1,31.7,5.1z"/>
		<path class="st2" d="M122.9,31.7c0-14.6-12-26.6-26.6-26.6C110.9,5.1,122.9,17.1,122.9,31.7z"/>
		<path class="st2" d="M5.1,96.3c0,14.6,12,26.6,26.6,26.6C17.1,122.9,5.1,110.9,5.1,96.3z"/>
		<path class="st2" d="M96.3,122.9c14.6,0,26.6-12,26.6-26.6C122.9,110.9,110.9,122.9,96.3,122.9z"/>
		<path class="st1" d="M96.3,5.1H31.7c-14.6,0-26.6,12-26.6,26.6v64.6c0,14.6,12,26.6,26.6,26.6h64.6c14.6,0,26.6-12,26.6-26.6V31.7
			C122.9,17.1,110.9,5.1,96.3,5.1z M118.2,96.3c0,12-9.9,21.8-21.8,21.8H31.7c-12,0-21.9-9.9-21.9-21.8V31.7
			c0-12,9.9-21.9,21.9-21.9h64.6c12,0,21.8,9.9,21.8,21.9V96.3z"/>
	</g>
</g>
</svg>
