<?xml version="1.0" encoding="utf-8"?>
<!-- Generator: Adobe Illustrator 25.4.1, SVG Export Plug-In . SVG Version: 6.00 Build 0)  -->
<svg version="1.1" id="Layer_1" xmlns="http://www.w3.org/2000/svg" xmlns:xlink="http://www.w3.org/1999/xlink" x="0px" y="0px"
	 viewBox="0 0 128 128" style="enable-background:new 0 0 128 128;" xml:space="preserve">
<style type="text/css">
	.st0{fill:#FFFFFF;}
	.st1{fill:#CD8C5E;}
</style>
<rect x="0" class="st0" width="128" height="128"/>
<g>
	<g>
		<path class="st1" d="M64,122.6C31.6,122.6,5.4,96.4,5.4,64c0-1.4,1.2-2.3,2.3-2.5l0,0c1.4,0,2.3,1.2,2.5,2.3l0,0
			c0,29.7,24,53.7,53.7,53.7s53.7-24,53.7-53.7c0-29.5-24-53.5-53.7-53.5c-1.4,0-2.3-1.2-2.5-2.3l0,0c0-1.4,1.2-2.5,2.5-2.5l0,0
			c32.4,0,58.6,26.2,58.6,58.6S96.4,122.6,64,122.6z"/>
		<path class="st1" d="M17.7,34.7c-0.6,0-1-0.2-1.4-0.4c-1.2-0.8-1.4-2.3-0.6-3.5C26.7,15,44.7,5.4,64,5.4c1.4,0,2.3,1.2,2.5,2.3
			l0,0c0,1.4-1.2,2.3-2.3,2.5l0,0c-17.8,0-34.2,8.8-44.3,23.4C19.3,34.3,18.5,34.7,17.7,34.7z"/>
		<path class="st1" d="M66.5,68.9c-1.4,0-2.3-1.2-2.5-2.3l0,0V32.4c0-1.4,1.2-2.3,2.3-2.5l0,0c1.4,0,2.3,1.2,2.5,2.3l0,0v34.2
			C68.9,67.7,67.7,68.9,66.5,68.9L66.5,68.9z"/>
		<path class="st1" d="M95.8,68.9H66.5c-1.4,0-2.3-1.2-2.5-2.3l0,0c0-1.4,1.2-2.3,2.3-2.5l0,0h29.3c1.4,0,2.3,1.2,2.5,2.3l0,0
			C98.2,67.7,97,68.9,95.8,68.9L95.8,68.9z"/>
	</g>
</g>
</svg>
