<?xml version="1.0" encoding="utf-8"?>
<!-- Generator: Adobe Illustrator 25.4.1, SVG Export Plug-In . SVG Version: 6.00 Build 0)  -->
<svg version="1.1" id="Layer_1" xmlns="http://www.w3.org/2000/svg" xmlns:xlink="http://www.w3.org/1999/xlink" x="0px" y="0px"
	 viewBox="0 0 128 128" style="enable-background:new 0 0 128 128;" xml:space="preserve">
<style type="text/css">
	.st0{fill:#FFFFFF;}
	.st1{fill:#CD8C5E;}
</style>
<rect x="0" class="st0" width="128" height="128"/>
<g>
	<g>
		<path class="st1" d="M76.4,5.1H51.6c-6.5,0-11.8,5.3-11.8,11.8v4.9c0,1.2,1,2,2,2h44.4c1.2,0,2-1,2-2v-4.9
			C88.1,10.4,82.8,5.1,76.4,5.1z M84,19.8H43.8v-2.9c0-4.3,3.5-7.9,7.9-7.9h24.5c4.3,0,7.9,3.5,7.9,7.9V19.8z"/>
		<path class="st1" d="M105.8,122.9H22.2c-1.4,0-2.6-1.2-2.6-2.6l0,0V16.9c0-1.4,1.2-2.6,2.6-2.6l0,0H32c1.4,0.2,2.4,1.4,2.4,2.6
			l0,0c0,1.4-1.2,2.6-2.6,2.6l0,0h-7.3V118h78.9V19.4H96c-1.4,0-2.6-1.2-2.6-2.6l0,0c0-1.4,1.2-2.6,2.6-2.6l0,0h9.8
			c1.4,0,2.6,1.2,2.6,2.6l0,0v103.5C108.4,121.7,107.2,122.9,105.8,122.9L105.8,122.9z"/>
		<path class="st1" d="M85.8,44.8H43.2c-1.4,0-2.6-1.2-2.6-2.6l0,0c0-1.4,1.2-2.6,2.6-2.6l0,0h42.6c1.4,0,2.6,1.2,2.6,2.6l0,0
			C88.1,43.6,87.2,44.8,85.8,44.8L85.8,44.8z"/>
		<path class="st1" d="M85.8,64.2H43.2c-1.4,0-2.6-1.2-2.6-2.6l0,0c0-1.4,1.2-2.6,2.6-2.6l0,0h42.6c1.4,0,2.6,1.2,2.6,2.6l0,0
			C88.1,63,87.2,64.2,85.8,64.2L85.8,64.2z"/>
		<path class="st1" d="M85.8,83.6H43.2c-1.4,0-2.6-1.2-2.6-2.6l0,0c0-1.4,1.2-2.6,2.6-2.6l0,0h42.6c1.4,0,2.6,1.2,2.6,2.6l0,0
			C88.1,82.5,87.2,83.6,85.8,83.6L85.8,83.6z"/>
		<path class="st1" d="M85.8,103.1H43.2c-1.4,0-2.6-1.2-2.6-2.6l0,0c0-1.4,1.2-2.6,2.6-2.6l0,0h42.6c1.4,0,2.6,1.2,2.6,2.6l0,0
			C88.1,101.9,87.2,103.1,85.8,103.1L85.8,103.1z"/>
	</g>
</g>
</svg>
