<?xml version="1.0" encoding="utf-8"?>
<!-- Generator: Adobe Illustrator 26.0.1, SVG Export Plug-In . SVG Version: 6.00 Build 0)  -->
<svg version="1.1" id="Layer_1" xmlns="http://www.w3.org/2000/svg" xmlns:xlink="http://www.w3.org/1999/xlink" x="0px" y="0px"
	 viewBox="0 0 128 128" enable-background="new 0 0 128 128" xml:space="preserve">
<rect y="0" fill="#FFFFFF" width="128" height="128"/>
<g>
	<path fill="#CD8C5E" d="M113.1,120.1H14.9c-3.9,0-6.9-3.2-7.1-7.1V28.9c0-3.9,3.2-6.9,7.1-7.1h98.1c3.9,0,6.9,3.2,7.1,7.1V113
		C120,116.9,116.8,120.1,113.1,120.1z M14.9,26.6c-1.3,0-2.2,1.1-2.4,2.4v84.1c0,1.3,1.1,2.2,2.4,2.4h98.1c1.3,0,2.4-1.1,2.4-2.4V29
		c0-1.3-1.1-2.4-2.4-2.4C113.1,26.6,14.9,26.6,14.9,26.6z"/>
	<path fill="#CD8C5E" d="M117.7,50H10.3C9,50,8,48.9,7.8,47.7l0,0c0-1.3,1.1-2.2,2.2-2.4l0,0h107.5c1.3,0,2.2,1.1,2.4,2.2l0,0
		C120,48.9,119,50,117.7,50L117.7,50z"/>
	<path fill="#CD8C5E" d="M99,36c-1.3,0-2.2-1.1-2.4-2.2l0,0V10.4c0-1.3,1.1-2.2,2.2-2.4l0,0c1.3,0,2.2,1.1,2.4,2.2l0,0v23.4
		C101.3,34.8,100.4,36,99,36L99,36z"/>
	<path fill="#CD8C5E" d="M29,36c-1.3,0-2.2-1.1-2.4-2.2l0,0V10.4c0-1.3,1.1-2.2,2.2-2.4l0,0c1.3,0,2.2,1.1,2.4,2.2l0,0v23.4
		C31.2,34.8,30.3,36,29,36L29,36z"/>
	<path fill="#CD8C5E" d="M53.3,57.5h-4.7c-1.3,0-2.2,1.1-2.4,2.2l0,0c0,1.3,1.1,2.2,2.2,2.4l0,0h4.7c1.3,0,2.2-1.1,2.4-2.2l0,0
		C55.7,58.6,54.6,57.5,53.3,57.5L53.3,57.5z"/>
	<path fill="#CD8C5E" d="M71.9,62.1h4.7c1.3,0,2.2-1.1,2.4-2.2l0,0c0-1.3-1.1-2.2-2.2-2.4l0,0h-4.7c-1.3,0-2.2,1.1-2.4,2.2l0,0
		C69.7,61,70.6,62.1,71.9,62.1L71.9,62.1z"/>
	<path fill="#CD8C5E" d="M25.2,78h4.7c1.3,0,2.2-1.1,2.4-2.2l0,0c0-1.3-1.1-2.2-2.2-2.4l0,0h-4.9c-1.3,0-2.2,1.1-2.4,2.2l0,0
		C23,76.9,23.9,78,25.2,78L25.2,78z"/>
	<path fill="#CD8C5E" d="M53.3,73.3h-4.7c-1.3,0-2.2,1.1-2.4,2.2l0,0c0,1.3,1.1,2.2,2.2,2.4l0,0h4.7c1.3,0,2.2-1.1,2.4-2.2l0,0
		C55.7,74.5,54.6,73.3,53.3,73.3L53.3,73.3z"/>
	<path fill="#CD8C5E" d="M76.6,73.3h-4.7c-1.3,0-2.2,1.1-2.4,2.2l0,0c0,1.3,1.1,2.2,2.2,2.4l0,0h4.7c1.3,0,2.2-1.1,2.4-2.2l0,0
		C79,74.5,77.9,73.3,76.6,73.3L76.6,73.3z"/>
	<path fill="#CD8C5E" d="M25.2,93h4.7c1.3,0,2.2-1.1,2.4-2.2l0,0c0-1.3-1.1-2.2-2.2-2.4l0,0h-4.9c-1.3,0-2.2,1.1-2.4,2.2l0,0
		C23,91.9,23.9,93,25.2,93L25.2,93z"/>
	<path fill="#CD8C5E" d="M53.3,88.3h-4.7c-1.3,0-2.2,1.1-2.4,2.2l0,0c0,1.3,1.1,2.2,2.2,2.4l0,0h4.7c1.3,0,2.2-1.1,2.4-2.2l0,0
		C55.7,89.4,54.6,88.3,53.3,88.3L53.3,88.3z"/>
	<path fill="#CD8C5E" d="M76.6,88.3h-4.7c-1.3,0-2.2,1.1-2.4,2.2l0,0c0,1.3,1.1,2.2,2.2,2.4l0,0h4.7c1.3,0,2.2-1.1,2.4-2.2l0,0
		C79,89.4,77.9,88.3,76.6,88.3L76.6,88.3z"/>
	<path fill="#CD8C5E" d="M76.6,104.2h-4.7c-1.3,0-2.2,1.1-2.4,2.2l0,0c0,1.3,1.1,2.2,2.2,2.4l0,0h4.7c1.3,0,2.2-1.1,2.4-2.2l0,0
		C79,105.3,77.9,104.2,76.6,104.2L76.6,104.2z"/>
	<path fill="#CD8C5E" d="M25.2,108.9h4.7c1.3,0,2.2-1.1,2.4-2.2l0,0c0-1.3-1.1-2.2-2.2-2.4l0,0h-4.9c-1.3,0-2.2,1.1-2.4,2.2l0,0
		C23,107.7,23.9,108.9,25.2,108.9L25.2,108.9z"/>
	<path fill="#CD8C5E" d="M53.3,104.2h-4.7c-1.3,0-2.2,1.1-2.4,2.2l0,0c0,1.3,1.1,2.2,2.2,2.4l0,0h4.7c1.3,0,2.2-1.1,2.4-2.2l0,0
		C55.7,105.3,54.6,104.2,53.3,104.2L53.3,104.2z"/>
	<path fill="#CD8C5E" d="M100,57.5h-4.7c-1.3,0-2.2,1.1-2.4,2.2l0,0c0,1.3,1.1,2.2,2.2,2.4l0,0h4.7c1.3,0,2.2-1.1,2.4-2.2l0,0
		C102.4,58.6,101.3,57.5,100,57.5L100,57.5z"/>
	<path fill="#CD8C5E" d="M100,73.3h-4.7c-1.3,0-2.2,1.1-2.4,2.2l0,0c0,1.3,1.1,2.2,2.2,2.4l0,0h4.7c1.3,0,2.2-1.1,2.4-2.2l0,0
		C102.4,74.5,101.3,73.3,100,73.3L100,73.3z"/>
	<path fill="#CD8C5E" d="M100,88.3h-4.7c-1.3,0-2.2,1.1-2.4,2.2l0,0c0,1.3,1.1,2.2,2.2,2.4l0,0h4.7c1.3,0,2.2-1.1,2.4-2.2l0,0
		C102.4,89.4,101.3,88.3,100,88.3L100,88.3z"/>
	<path fill="#CD8C5E" d="M100,104.2h-4.7c-1.3,0-2.2,1.1-2.4,2.2l0,0c0,1.3,1.1,2.2,2.2,2.4l0,0h4.7c1.3,0,2.2-1.1,2.4-2.2l0,0
		C102.4,105.3,101.3,104.2,100,104.2L100,104.2z"/>
</g>
</svg>
